# xmcd
#
# Track frame offsets: 
#        150
#        17334
#        43752
#        69856
#        100356
#        130685
#        155720
#        179379
#        214278
#
# Disc length: 3272 seconds
#
# Revision: 0
# Processed by: cddbd v1.5.2PL0 Copyright (c) Steve Scherf et al.
# Submitted via: ExactAudioCopy v0.99pb3
#
DISCID=760cc609
DTITLE=Lee Gates - Touring With Lucy
DYEAR=2007
DGENRE=Blues
TTITLE0=Meet You On The Other Side Of Town
TTITLE1=I Can Hear Blues In My Head
TTITLE2=I'm Leaving You Woman
TTITLE3=Slipping And Sliding Down The Street
TTITLE4=Guitar Moaning The Blues
TTITLE5=I'm Going Down Highway 94
TTITLE6=Why Don't These Young People Understand
TTITLE7=Wonder Why (Black Lucy) Has The Blues
TTITLE8=My Baby Won't Stay Home
EXTD=
EXTT0=
EXTT1=
EXTT2=
EXTT3=
EXTT4=
EXTT5=
EXTT6=
EXTT7=
EXTT8=
PLAYORDER=
